{"title":"Funny Pics Compilation Part 3","uid":15948172,"size":105671366,"categoryP":"video","categoryS":"other","magnet":"?xt=urn:btih:8ca257d91cc7dca2eb5181a89ce8d731a8a0285c&amp;dn=Funny+Pics+Compilation+Part+3&amp;tr=udp%3A%2F%2Ftracker.leechers-paradise.org%3A6969&amp;tr=udp%3A%2F%2Fzer0day.ch%3A1337&amp;tr=udp%3A%2F%2Fopen.demonii.com%3A1337&amp;tr=udp%3A%2F%2Ftracker.coppersurfer.tk%3A6969&amp;tr=udp%3A%2F%2Fexodus.desync.com%3A6969","seeders":14,"leechers":6,"uploader":"nico1899","files":3,"time":1475536807,"description":"Funny Pics Compilation Part 3\r\n\r\nScreenshots\r\n   \nhttp://picrelated.com/image/95MF2 \nhttp://picrelated.com/image/95Nw0 \nhttp://picrelated.com/image/95XCY \nhttp://picrelated.com/image/95sSL \nhttp://picrelated.com/image/955Ep\r\n\r\nFormat                                   : MPEG-4\r\nFormat profile                           : Base Media / Version 2\r\nCodec ID                                 : mp42 (mp41/isom)\r\nFile size                                : 101 MiB\r\nDuration                                 : 5 min 47 s\r\nOverall bit rate                         : 2 432 kb/s\r\nEncoded date                             : UTC 2016-10-03 21:03:00\r\nTagged date                              : UTC 2016-10-03 21:03:00\r\n\r\nVideo\r\nID                                       : 1\r\nFormat                                   : AVC\r\nFormat/Info                              : Advanced Video Codec\r\nFormat profile                           :   \r\nFormat settings, CABAC                   : No\r\nFormat settings, ReFrames                : 2 frames\r\nFormat settings, GOP                     : M=1, N=30\r\nCodec ID                                 : avc1\r\nCodec ID/Info                            : Advanced Video Coding\r\nDuration                                 : 5 min 47 s\r\nSource duration                          : 5 min 47 s\r\nBit rate                                 : 2 238 kb/s\r\nWidth                                    : 1 920 pixels\r\nHeight                                   : 1 080 pixels\r\nDisplay aspect ratio                     : 16:9\r\nFrame rate mode                          : Constant\r\nFrame rate                               : 29.970 (29970/1000) FPS\r\nColor space                              : YUV\r\nChroma subsampling                       : 4:2:0\r\nBit depth                                : 8 bits\r\nScan type                                : Progressive\r\nBits/(Pixel*Frame)                       : 0.036\r\nStream size                              : 92.7 MiB (92%)\r\nSource stream size                       : 92.7 MiB (92%)\r\nEncoded date                             : UTC 2016-10-03 21:03:00\r\nTagged date                              : UTC 2016-10-03 21:03:00\r\nmdhd_Duration                            : 347581\r\n\r\nAudio\r\nID                                       : 2\r\nFormat                                   : AAC\r\nFormat/Info                              : Advanced Audio Codec\r\nFormat profile                           : LC\r\nCodec ID                                 : 40\r\nDuration                                 : 5 min 47 s\r\nBit rate mode                            : Constant\r\nBit rate                                 : 192 kb/s\r\nChannel(s)                               : 2 channels\r\nChannel positions                        : Front: L R\r\nSampling rate                            : 48.0 kHz\r\nFrame rate                               : 46.875 FPS (1024 spf)\r\nCompression mode                         : Lossy\r\nStream size                              : 7.93 MiB (8%)\r\nEncoded date                             : UTC 2016-10-03 21:03:00\r\nTagged date                              : UTC 2016-10-03 21:03:00\r\nmdhd_Duration                            : 347584","torrent":{"xt":"urn:btih:8ca257d91cc7dca2eb5181a89ce8d731a8a0285c","amp;dn":"Funny+Pics+Compilation+Part+3","amp;tr":["udp%3A%2F%2Ftracker.leechers-paradise.org%3A6969","udp%3A%2F%2Fzer0day.ch%3A1337","udp%3A%2F%2Fopen.demonii.com%3A1337","udp%3A%2F%2Ftracker.coppersurfer.tk%3A6969","udp%3A%2F%2Fexodus.desync.com%3A6969"],"infoHash":"8ca257d91cc7dca2eb5181a89ce8d731a8a0285c","infoHashBuffer":{"type":"Buffer","data":[140,162,87,217,28,199,220,162,235,81,129,168,156,232,215,49,168,160,40,92]},"announce":[],"urlList":[]}}